<?xml version="1.0" standalone="no"?>
<!DOCTYPE svg PUBLIC "-//W3C//DTD SVG 20010904//EN"
 "http://www.w3.org/TR/2001/REC-SVG-20010904/DTD/svg10.dtd">
<svg version="1.0" xmlns="http://www.w3.org/2000/svg"
 width="1543.000000pt" height="555.000000pt" viewBox="0 0 1543.000000 555.000000"
 preserveAspectRatio="xMidYMid meet">

<g transform="translate(0.000000,555.000000) scale(0.100000,-0.100000)"
fill="#000000" stroke="none">
<path d="M0 2775 l0 -2775 7715 0 7715 0 0 2775 0 2775 -7715 0 -7715 0 0
-2775z m3962 2410 c13 -2 39 -6 58 -9 19 -3 53 -9 75 -13 22 -4 54 -7 72 -8
17 0 29 -4 26 -9 -3 -5 6 -7 20 -4 15 3 24 1 21 -3 -5 -8 6 -11 54 -13 9 -1
19 -4 22 -7 7 -9 201 -72 223 -73 9 0 17 -3 17 -7 0 -10 51 -30 61 -24 5 4 9
2 9 -3 0 -14 179 -104 192 -96 6 4 8 3 5 -3 -4 -5 6 -16 21 -24 15 -8 54 -32
87 -54 33 -22 67 -44 76 -50 62 -38 224 -170 263 -213 10 -12 23 -19 28 -16 4
3 7 0 6 -8 -2 -7 3 -12 10 -10 8 1 11 -2 8 -7 -8 -12 18 -33 29 -23 5 4 5 1 1
-5 -4 -7 9 -30 31 -55 94 -104 189 -235 243 -333 18 -33 43 -78 55 -100 13
-22 26 -51 30 -65 4 -14 21 -52 36 -84 16 -33 29 -66 29 -73 0 -8 5 -11 12 -7
6 4 8 3 5 -2 -3 -5 10 -61 29 -124 43 -143 69 -273 84 -415 7 -60 14 -121 17
-135 8 -45 8 -240 -1 -240 -5 0 -6 -26 -3 -57 4 -38 3 -52 -3 -43 -8 12 -10 9
-10 -10 0 -47 -76 -316 -113 -404 -9 -21 -14 -43 -10 -49 3 -5 1 -7 -4 -4 -14
9 -37 -48 -27 -64 4 -7 3 -10 -3 -6 -5 3 -32 -41 -61 -99 -28 -57 -45 -101
-39 -98 7 4 0 -4 -15 -19 -27 -25 -33 -39 -28 -62 1 -5 -1 -7 -5 -3 -4 4 -28
-24 -53 -62 -97 -141 -232 -295 -383 -435 -47 -44 -198 -160 -247 -190 -10 -5
-29 -18 -45 -28 -52 -35 -242 -127 -274 -133 -37 -7 -54 1 -47 21 4 8 10 13
14 10 9 -6 25 13 17 21 -2 3 -26 -4 -53 -15 -27 -11 -45 -20 -40 -20 6 -1 4
-7 -2 -13 -10 -10 -15 -10 -22 1 -7 12 -11 12 -23 3 -8 -7 -19 -12 -23 -11 -5
1 -11 1 -14 -1 -3 -1 -15 -3 -27 -6 -43 -8 -23 15 47 54 39 21 67 42 63 47 -5
4 -3 5 4 1 11 -6 153 58 153 70 0 3 -5 2 -12 -2 -7 -4 -8 -3 -4 5 4 6 12 9 17
5 17 -10 136 66 123 79 -3 3 0 8 7 13 8 4 10 3 5 -4 -4 -7 -4 -12 1 -12 12 1
43 26 38 32 -3 2 1 5 9 5 23 0 116 64 109 76 -3 6 -1 7 5 3 6 -3 15 2 21 11 5
10 13 18 18 18 4 0 7 3 6 7 -2 5 0 7 5 6 14 -4 53 23 47 33 -4 5 -1 8 7 7 7
-2 12 4 10 12 -2 8 0 12 4 8 11 -11 65 32 58 45 -4 7 -3 9 1 4 9 -8 95 70 95
86 0 4 -5 5 -12 1 -7 -4 -8 -3 -4 5 4 6 12 9 17 5 6 -3 20 4 31 16 17 18 18
24 7 31 -10 6 -11 9 -1 10 22 3 27 4 40 13 7 4 11 15 8 23 -3 8 -2 12 3 8 13
-7 52 45 44 58 -3 5 -1 7 4 4 14 -9 46 40 37 55 -4 6 -3 8 4 4 12 -7 55 48 45
58 -3 3 -2 6 3 6 5 0 18 15 28 33 12 23 13 26 2 13 -9 -11 -16 -15 -16 -8 0 6
8 17 18 24 29 21 64 86 57 106 -3 12 1 24 12 33 16 13 17 12 4 -3 -7 -10 -9
-18 -3 -18 13 0 44 79 36 92 -4 6 -3 8 3 5 6 -4 16 8 23 26 6 17 18 47 26 65
8 18 12 38 9 43 -4 5 -1 9 6 9 6 0 9 8 6 20 -3 11 -2 18 2 16 10 -7 43 112 35
126 -4 7 -3 8 4 4 11 -7 16 17 15 62 -1 6 4 12 9 12 6 0 8 15 6 34 -2 19 -1
33 3 30 14 -8 28 190 25 371 -2 147 -8 217 -26 308 -12 64 -27 117 -32 117 -5
0 -6 4 -3 10 6 10 -18 104 -42 160 -8 19 -19 44 -23 55 -36 86 -90 195 -97
195 -5 0 -9 9 -10 21 -1 11 -27 57 -57 102 -54 80 -105 146 -90 118 5 -9 3
-12 -5 -7 -6 4 -9 12 -5 17 8 14 -50 84 -196 233 -133 137 -234 221 -250 211
-6 -4 -9 -2 -8 4 2 5 -39 37 -91 70 -93 60 -119 72 -105 49 4 -7 3 -8 -5 -4
-6 4 -9 11 -6 16 6 10 -38 36 -70 42 -10 1 -28 11 -38 21 -10 10 -25 16 -33
13 -8 -3 -12 -2 -9 3 3 5 -5 12 -17 16 -13 4 -43 16 -67 26 -24 11 -50 18 -58
15 -8 -3 -12 -2 -9 3 7 11 -140 55 -159 47 -7 -2 -15 -1 -17 4 -2 5 -19 12
-38 15 -27 4 -30 3 -15 -4 27 -13 15 -13 -45 0 -27 6 -50 15 -50 20 0 5 -11 7
-25 5 -14 -3 -25 0 -25 6 0 6 -15 8 -34 6 -19 -2 -33 -1 -31 3 6 9 -114 19
-242 19 -69 0 -113 -4 -113 -10 0 -5 -5 -10 -11 -10 -5 0 -7 5 -3 12 5 7 3 8
-6 3 -7 -4 -29 -8 -49 -7 -93 4 -486 -82 -459 -100 8 -5 3 -6 -13 -3 -17 4
-32 1 -43 -10 -9 -9 -16 -13 -16 -8 0 4 -5 0 -11 -9 -5 -10 -17 -18 -25 -18
-8 0 -12 4 -9 10 3 5 -9 3 -27 -6 -18 -8 -45 -19 -60 -25 -16 -6 -25 -16 -21
-22 3 -5 1 -7 -5 -3 -15 9 -63 -15 -55 -28 3 -6 3 -8 -1 -4 -16 14 -170 -78
-159 -95 3 -6 1 -7 -6 -3 -15 10 -98 -46 -210 -139 -95 -79 -120 -105 -102
-105 7 0 9 -5 6 -10 -4 -6 -10 -8 -15 -5 -4 3 -13 -2 -20 -10 -7 -8 -9 -15 -5
-15 4 0 2 -7 -5 -15 -7 -8 -17 -15 -23 -15 -6 0 -2 7 9 15 10 8 14 15 8 15
-19 0 -77 -67 -69 -81 5 -7 4 -10 -2 -6 -6 4 -19 -3 -29 -16 -13 -14 -14 -18
-4 -12 10 6 9 4 -2 -6 -9 -9 -14 -20 -10 -24 4 -5 2 -5 -4 -2 -15 9 -57 -38
-59 -65 -1 -13 -7 -23 -14 -23 -13 0 -50 -44 -51 -59 0 -4 7 -5 16 -2 9 3 12
2 9 -5 -4 -6 -13 -8 -20 -5 -17 6 -79 -90 -71 -110 3 -8 0 -13 -6 -11 -6 1
-13 -4 -16 -12 -3 -9 0 -11 8 -6 9 5 11 4 6 -4 -4 -6 -11 -9 -15 -6 -11 6 -33
-44 -25 -57 5 -7 2 -8 -6 -3 -10 6 -12 4 -7 -8 3 -10 2 -17 -3 -17 -6 0 -10
-5 -10 -11 0 -5 5 -7 12 -3 7 4 8 3 4 -5 -4 -6 -12 -9 -17 -6 -11 8 -32 -43
-25 -62 3 -7 0 -12 -7 -10 -7 1 -12 -8 -11 -20 0 -12 -3 -20 -7 -17 -9 5 -59
-147 -82 -244 -10 -44 -11 -62 -3 -62 6 0 5 -4 -3 -9 -9 -6 -11 -18 -7 -34 3
-14 2 -27 -3 -29 -16 -5 -29 -134 -30 -301 -1 -108 1 -157 9 -152 6 4 10 -3
10 -17 0 -19 -2 -20 -11 -8 -8 12 -9 11 -5 -5 2 -11 8 -53 11 -92 4 -40 10
-73 14 -73 3 0 7 -19 8 -42 2 -23 7 -56 12 -73 5 -16 12 -43 15 -58 4 -15 10
-26 14 -23 5 3 6 -9 4 -26 -3 -20 -1 -29 6 -24 6 3 14 1 18 -5 4 -8 3 -9 -4
-5 -16 10 -15 -19 1 -36 6 -7 12 -17 13 -23 1 -29 17 -64 27 -58 6 3 7 1 3 -6
-10 -16 33 -123 47 -114 5 3 7 1 4 -5 -10 -15 3 -43 16 -35 6 3 7 1 3 -6 -10
-16 83 -173 97 -164 6 4 8 0 4 -9 -3 -9 1 -24 9 -35 13 -17 14 -17 7 2 -7 21
-5 21 17 -9 10 -13 10 -17 3 -12 -20 12 -15 -1 18 -47 17 -23 35 -41 41 -39 5
1 7 -2 3 -8 -4 -6 6 -25 22 -43 15 -18 37 -45 47 -59 11 -15 24 -24 28 -22 5
3 7 1 6 -5 -3 -12 120 -151 134 -151 5 0 6 6 2 13 -4 7 -3 9 2 4 5 -5 9 -14 9
-20 1 -7 7 -11 14 -9 7 1 10 -2 7 -6 -6 -11 52 -58 66 -54 5 1 7 -2 4 -7 -6
-9 67 -62 90 -65 7 -1 17 -6 21 -11 4 -4 1 -5 -7 0 -10 5 -12 5 -5 -3 6 -6 17
-12 25 -14 8 -2 21 -10 30 -18 14 -14 14 -14 6 0 -5 8 5 0 22 -18 20 -21 38
-32 48 -28 8 3 13 2 10 -3 -7 -11 53 -41 70 -34 6 2 15 -1 20 -8 5 -8 3 -10
-7 -5 -8 4 -6 1 4 -8 11 -8 26 -12 35 -9 10 4 13 2 8 -5 -8 -13 231 -135 251
-128 7 3 13 1 13 -4 0 -4 17 -14 38 -20 62 -20 111 -44 112 -56 0 -25 -164 18
-340 90 -35 14 -60 22 -55 17 21 -20 112 -69 140 -75 41 -10 121 -38 179 -65
59 -27 67 -33 56 -46 -7 -9 -16 -12 -19 -7 -3 6 -22 12 -41 15 -19 3 -55 13
-80 22 -25 9 -49 18 -55 19 -5 1 -24 10 -42 19 -18 9 -40 18 -50 20 -10 1 -22
5 -28 8 -5 4 -27 12 -49 19 -49 16 -147 62 -211 100 -27 16 -63 37 -80 46 -16
9 -81 55 -144 102 -140 104 -322 285 -417 414 -40 53 -75 94 -79 90 -5 -4 -5
-2 -2 4 7 13 -21 56 -33 49 -4 -3 -7 3 -6 13 0 9 -4 16 -10 15 -7 -1 -11 5
-10 15 0 9 -5 16 -12 14 -8 -1 -11 2 -7 8 3 6 -14 44 -39 85 -46 75 -83 150
-106 217 -8 20 -18 34 -23 31 -6 -3 -7 -1 -3 6 9 15 -3 53 -15 46 -5 -3 -6 2
-2 11 4 11 2 15 -4 11 -6 -4 -8 3 -5 20 3 16 1 24 -5 20 -6 -4 -11 -1 -10 6 1
36 -4 52 -12 39 -6 -10 -10 -9 -14 7 -3 13 -1 19 5 15 6 -4 8 1 4 12 -19 63
-65 268 -70 314 -11 97 -13 342 -4 454 4 60 18 152 30 205 11 53 21 110 21
128 0 18 5 29 10 26 5 -3 6 4 2 16 -4 13 -2 21 5 21 8 0 10 10 7 25 -2 14 -2
23 1 20 8 -8 54 114 56 147 0 14 4 24 9 21 8 -5 27 39 29 73 1 13 4 21 7 19 6
-6 71 123 71 141 0 8 4 14 8 14 5 0 19 19 32 43 35 63 211 294 274 360 31 32
56 63 56 68 0 6 4 8 9 4 10 -6 26 13 26 30 0 6 5 10 10 10 14 0 235 186 235
197 0 5 4 7 8 4 5 -3 25 6 45 19 20 14 39 25 42 25 3 0 29 15 58 33 29 17 78
46 110 62 31 17 57 33 57 37 0 4 7 4 17 1 12 -5 14 -3 8 7 -5 8 -4 11 3 7 13
-8 122 32 122 45 0 5 4 7 9 3 5 -3 12 -1 16 5 4 6 10 8 14 6 4 -3 48 8 98 23
49 16 135 37 191 47 55 10 99 21 97 24 -1 3 16 6 39 7 22 1 91 7 151 12 98 8
377 6 437 -4z m-695 -221 c-3 -3 -12 -4 -19 -1 -8 3 -5 6 6 6 11 1 17 -2 13
-5z m1100 -50 c-3 -3 -12 -4 -19 -1 -8 3 -5 6 6 6 11 1 17 -2 13 -5z m-543
-76 c-3 -4 4 -6 13 -6 10 1 52 -2 93 -7 41 -5 87 -8 102 -8 16 0 25 -4 21 -10
-4 -6 2 -8 15 -5 12 4 22 3 22 -1 0 -11 97 -34 110 -26 5 3 10 2 10 -3 0 -13
118 -52 136 -45 9 3 24 -4 35 -16 21 -23 44 -29 34 -8 -4 6 0 5 7 -4 20 -24
117 -71 131 -63 7 4 9 4 5 -1 -10 -11 41 -37 56 -28 6 3 8 2 3 -2 -9 -11 43
-46 57 -38 6 3 8 2 4 -2 -10 -10 63 -56 76 -48 5 4 6 1 2 -5 -4 -7 -5 -12 -2
-12 2 0 12 -3 22 -7 13 -5 15 -3 9 7 -5 9 -4 11 4 6 7 -4 10 -13 8 -19 -2 -7
8 -20 22 -29 30 -21 45 -23 35 -6 -4 7 -3 8 5 4 6 -4 9 -12 6 -17 -4 -5 4 -13
17 -18 13 -6 19 -10 14 -10 -6 -1 3 -14 19 -31 15 -16 33 -27 38 -23 6 3 7 1
4 -4 -7 -12 16 -36 25 -27 3 3 9 0 14 -7 5 -8 3 -10 -7 -3 -7 4 8 -15 35 -43
28 -29 54 -49 59 -46 6 3 7 1 3 -5 -6 -11 10 -26 29 -27 6 -1 9 -7 7 -13 -3
-17 84 -123 93 -114 5 4 5 2 2 -4 -8 -14 47 -86 58 -76 5 4 5 1 1 -6 -8 -14
51 -125 64 -117 4 3 8 -1 7 -8 -1 -34 4 -48 15 -41 6 4 8 3 5 -4 -10 -15 3
-43 16 -35 5 3 7 1 4 -4 -10 -16 13 -74 26 -66 6 4 7 1 2 -6 -9 -15 22 -101
36 -101 6 0 7 -5 4 -10 -9 -15 5 -51 17 -44 7 5 8 2 3 -5 -10 -18 15 -132 28
-124 6 3 7 1 3 -5 -9 -15 4 -113 14 -107 5 3 6 -4 3 -15 -3 -11 -2 -28 2 -37
4 -10 7 -51 7 -91 -1 -40 2 -71 6 -68 4 2 4 -33 1 -77 -4 -45 -6 -106 -5 -135
0 -28 -3 -52 -8 -52 -5 0 -7 -2 -4 -5 6 -6 -20 -128 -41 -194 -7 -22 -7 -40
-1 -52 13 -23 13 -39 0 -19 -10 16 -8 20 -30 -55 -7 -22 -35 -89 -62 -148 -28
-59 -47 -115 -44 -123 4 -10 2 -13 -6 -8 -8 5 -9 2 -5 -10 4 -10 3 -15 -3 -11
-5 3 -14 -2 -20 -12 -6 -10 -33 -56 -60 -102 -27 -46 -47 -88 -43 -94 3 -5 1
-7 -5 -3 -13 8 -42 -31 -36 -49 3 -6 -2 -18 -11 -25 -8 -7 -15 -9 -15 -5 0 4
-7 2 -15 -5 -8 -7 -12 -16 -9 -21 3 -5 2 -8 -3 -7 -4 1 -47 -36 -94 -82 -109
-108 -126 -122 -231 -199 -49 -35 -85 -68 -81 -74 3 -5 1 -7 -4 -4 -15 10
-105 -42 -97 -55 4 -6 2 -8 -4 -4 -12 7 -62 -13 -62 -26 0 -4 -9 -8 -20 -8
-11 0 -30 -10 -42 -22 -13 -13 -29 -22 -35 -20 -12 3 -62 -16 -105 -39 -10 -5
-25 -9 -33 -9 -10 0 -13 -5 -9 -12 4 -7 3 -8 -4 -4 -13 8 -94 -13 -88 -23 2
-3 -8 -6 -22 -7 -15 0 -40 -4 -57 -7 -16 -4 -48 -10 -70 -13 -22 -4 -45 -11
-52 -16 -6 -5 -14 -5 -17 0 -5 9 -76 3 -76 -7 0 -7 -320 -6 -390 1 -25 3 -74
11 -109 17 -35 7 -70 10 -78 7 -8 -3 -12 -2 -9 3 3 5 -5 11 -19 13 -16 4 -22
1 -18 -6 4 -6 0 -5 -9 2 -9 7 -54 25 -101 41 -144 49 -270 106 -359 164 -31
20 -59 37 -62 37 -8 0 -101 64 -104 73 -2 4 -7 7 -12 7 -9 0 -30 18 -149 121
-83 73 -118 111 -215 239 -36 47 -72 93 -80 103 -9 9 -13 17 -9 17 5 0 0 5
-10 11 -9 6 -15 14 -12 19 3 4 -10 33 -29 64 -18 31 -44 81 -56 111 -13 32
-27 52 -33 48 -5 -3 -7 -1 -4 4 9 15 -27 116 -37 106 -5 -4 -6 -3 -2 4 8 14
-3 65 -13 59 -3 -2 -7 10 -8 27 -1 17 -6 33 -10 36 -5 3 -8 11 -8 16 -1 6 -5
32 -9 59 -6 34 -11 44 -18 35 -7 -10 -8 -8 -3 8 3 11 1 50 -5 85 -33 193 -29
437 10 618 10 47 16 93 14 103 -2 11 1 15 8 11 7 -5 9 0 6 14 -4 12 0 26 9 33
8 7 12 21 10 31 -3 10 -1 16 3 13 8 -5 26 51 22 68 -1 4 2 7 7 7 9 0 27 57 23
73 -1 4 3 7 9 7 6 0 9 6 6 14 -3 7 4 21 15 30 11 10 17 24 14 32 -3 9 -1 12 4
9 9 -6 14 8 11 28 0 4 3 7 8 7 8 0 62 94 58 101 -1 2 0 3 2 2 9 -6 32 38 26
47 -4 6 -1 9 7 8 7 -2 12 5 12 14 -1 10 1 16 5 15 3 -1 7 1 9 6 1 4 11 16 22
27 12 12 18 26 14 32 -4 6 -3 8 3 5 10 -6 90 82 86 95 -2 5 2 8 8 8 5 0 7 5 3
12 -4 6 -3 8 3 5 11 -7 50 30 46 42 -2 3 1 6 6 6 13 0 26 14 26 27 0 6 8 12
17 14 21 3 63 41 63 57 1 7 6 11 13 10 7 -2 40 20 74 48 35 28 102 74 150 103
49 29 85 56 81 60 -4 4 0 4 10 0 11 -4 19 0 23 10 3 9 11 13 17 9 5 -3 15 0
21 8 6 8 18 15 26 16 37 5 249 90 243 98 -5 4 -2 5 4 1 7 -4 60 5 118 19 58
14 146 32 195 39 50 7 93 15 95 17 7 8 233 4 229 -3z m-2197 -411 c15 -14 24
-239 12 -259 -7 -10 -9 -10 -9 0 0 8 -11 11 -37 7 -21 -3 -72 -7 -114 -9 -67
-3 -77 -1 -89 17 -12 19 -16 164 -6 212 3 11 5 25 5 32 2 22 215 22 238 0z
m4414 -44 c5 -5 6 -54 3 -115 l-7 -107 -108 -3 c-59 -2 -105 0 -102 5 2 4 -3
7 -11 7 -10 0 -16 9 -17 23 -1 21 0 142 1 179 0 9 8 18 17 20 36 7 215 0 224
-9z m-4507 -311 c70 2 96 0 96 -9 0 -6 -5 -15 -11 -19 -8 -4 -7 -9 2 -15 11
-7 10 -9 -3 -9 -18 0 -33 -33 -23 -50 3 -5 1 -10 -5 -10 -13 0 -72 -128 -65
-141 4 -5 -7 -7 -22 -4 -15 2 -45 7 -65 10 -21 3 -38 9 -38 13 -1 4 -2 58 -4
120 -2 90 0 112 11 112 9 0 11 5 7 13 -6 9 -3 8 8 -1 12 -10 44 -12 112 -10z
m43 12 c-3 -3 -12 -4 -19 -1 -8 3 -5 6 6 6 11 1 17 -2 13 -5z m-321 -22 c7 -4
13 -49 15 -117 4 -108 4 -109 -21 -123 -28 -15 -219 -9 -230 7 -8 13 -5 192 4
219 7 21 12 22 114 22 59 0 112 -4 118 -8z m4785 -4 c7 -71 5 -217 -2 -212 -5
3 -9 -2 -9 -10 0 -10 -9 -16 -24 -16 -14 0 -27 -4 -30 -8 -3 -5 -15 -8 -28 -7
-18 1 -32 17 -60 71 -20 38 -47 80 -60 95 -15 15 -24 37 -23 55 0 25 4 30 35
35 68 12 200 10 201 -3z m338 -4 c6 -6 1 -218 -6 -224 -9 -9 -218 1 -221 11
-2 5 -7 7 -11 5 -4 -3 -8 1 -8 9 0 8 4 15 9 15 5 0 8 41 7 91 -1 63 2 93 10
99 12 7 212 2 220 -6z m-1049 -159 c0 -11 -14 7 -31 40 -7 13 -3 12 10 -5 11
-14 21 -29 21 -35z m7290 -87 c0 -7 11 -35 24 -63 13 -27 36 -77 51 -110 15
-33 42 -91 60 -130 19 -38 58 -131 88 -205 30 -74 76 -177 101 -229 25 -52 46
-98 46 -102 0 -5 20 -52 45 -103 25 -52 45 -100 45 -106 0 -7 -30 -10 -92 -8
l-93 3 -46 105 -47 105 -193 0 -192 0 -36 -95 c-20 -52 -40 -101 -44 -107 -10
-16 -167 -18 -167 -3 0 10 40 117 65 175 7 17 25 62 40 100 15 39 38 96 51
128 13 32 24 63 24 68 0 5 13 37 29 71 52 114 87 192 115 263 16 39 41 95 56
125 15 30 33 72 40 93 11 35 30 51 30 25z m-5043 -20 c11 -13 23 -30 27 -38 3
-8 17 -33 31 -55 13 -22 28 -49 33 -60 6 -11 26 -44 46 -74 20 -29 36 -55 36
-58 0 -3 10 -19 23 -36 39 -56 149 -269 186 -360 6 -16 17 -27 24 -25 6 3 55
90 108 194 87 172 199 362 278 472 29 38 62 54 74 35 9 -16 21 -396 21 -708
l1 -320 -80 0 -80 0 -3 285 -2 285 -20 -33 c-23 -37 -25 -46 -8 -36 7 4 8 3 4
-5 -4 -6 -11 -9 -15 -6 -5 2 -40 -59 -80 -137 -70 -138 -191 -347 -201 -348
-3 0 -25 37 -48 83 -23 45 -70 134 -105 197 -34 63 -75 144 -91 180 -50 113
-53 113 -60 13 -3 -48 -5 -97 -4 -108 1 -11 1 -100 0 -198 l-2 -178 -82 3 -83
3 4 520 c2 286 5 523 8 528 9 14 40 7 60 -15z m5933 -15 c75 -25 217 -135 194
-151 -6 -4 -27 -17 -47 -30 -19 -13 -42 -36 -49 -52 -13 -29 -28 -40 -28 -20
0 5 -20 30 -44 54 -34 35 -53 46 -90 51 -74 11 -117 0 -153 -40 -28 -29 -33
-42 -33 -83 0 -79 7 -84 235 -173 132 -52 185 -97 209 -180 38 -125 13 -224
-78 -314 -70 -69 -122 -90 -228 -94 -58 -2 -77 2 -132 29 -71 33 -168 116
-192 162 -16 31 -6 58 21 58 8 0 29 19 49 42 l35 43 11 -30 c17 -44 58 -84
115 -111 128 -61 255 2 255 126 0 60 -37 91 -158 131 -127 42 -177 68 -239
123 -57 52 -83 109 -83 187 0 174 161 309 344 288 34 -4 72 -11 86 -16z
m-4238 -26 c91 -44 173 -114 226 -192 79 -118 87 -145 86 -285 -1 -191 -81
-340 -240 -447 -116 -79 -242 -100 -379 -65 -192 49 -317 165 -385 355 -15 41
-18 74 -16 157 4 121 20 180 73 268 107 176 257 256 465 248 86 -4 105 -8 170
-39z m1182 10 c-3 -12 -21 -55 -40 -95 -19 -41 -34 -77 -34 -81 0 -4 -11 -29
-23 -57 -13 -27 -41 -92 -62 -144 -21 -52 -51 -123 -66 -158 -16 -34 -29 -65
-29 -70 0 -4 -47 -101 -105 -215 -74 -147 -107 -203 -111 -190 -3 10 -28 63
-54 118 -26 55 -75 156 -108 225 -33 69 -79 170 -102 225 -65 156 -69 163
-131 292 -33 67 -64 134 -69 148 l-10 25 93 0 92 0 37 -77 c58 -125 143 -327
201 -481 40 -105 57 -139 65 -130 5 7 33 74 62 148 29 74 63 159 76 188 13 29
24 56 24 60 0 4 7 20 15 36 8 15 12 32 9 37 -3 5 -1 9 5 9 5 0 13 10 17 23 3
12 22 53 40 91 19 37 34 74 34 82 0 10 21 14 83 16 45 2 86 1 90 0 4 -2 5 -13
1 -25z m214 23 c7 0 12 -14 12 -35 0 -19 5 -35 10 -35 6 0 10 -10 10 -22 0
-19 -2 -20 -10 -8 -8 10 -10 -32 -9 -140 0 -85 0 -298 0 -472 l-1 -318 -67 0
c-38 0 -74 4 -81 8 -9 7 -13 62 -13 233 0 123 -3 227 -6 232 -10 17 0 479 12
534 4 17 14 23 48 26 23 2 51 2 62 1 11 -2 26 -4 33 -4z m717 -86 l0 -85 -208
3 c-114 2 -207 -1 -207 -5 0 -5 5 -18 11 -29 8 -15 8 -19 0 -14 -8 5 -11 -25
-11 -102 l0 -109 151 -1 c82 -1 160 3 173 8 43 16 49 2 47 -108 l-1 -63 -183
3 -183 3 -2 -139 -2 -139 210 8 210 7 0 -91 0 -91 -287 2 -288 3 -3 512 -2
513 277 2 c153 2 283 2 288 0 7 -1 11 -36 10 -88z m312 86 c154 -2 175 -4 228
-25 114 -47 188 -154 184 -264 -3 -71 -27 -120 -79 -161 l-41 -33 33 -16 c53
-25 112 -91 127 -141 7 -25 17 -55 22 -68 12 -31 11 -55 -1 -47 -6 4 -10 -5
-10 -20 0 -34 -41 -112 -78 -151 -44 -43 -129 -82 -211 -94 -78 -13 -355 -10
-368 3 -10 11 -10 998 0 1015 5 7 12 10 16 8 4 -3 84 -6 178 -6z m2691 -88 l3
-83 -206 3 -205 3 0 -127 0 -128 190 0 191 0 -3 -82 -3 -83 -192 -3 -193 -2 0
-35 c0 -19 3 -35 8 -35 4 0 7 -41 7 -90 0 -50 -4 -90 -9 -90 -5 0 -7 -3 -4 -6
4 -3 101 -5 217 -4 l212 1 -3 -88 -3 -88 -288 -1 c-158 0 -290 3 -293 8 -8 13
-6 940 1 982 7 33 10 35 49 38 22 2 149 1 281 -2 l240 -5 3 -83z m-8011 24 c1
-1 4 -50 6 -108 5 -121 11 -112 -83 -124 -101 -12 -150 -11 -150 3 0 8 -3 12
-7 10 -5 -3 -8 45 -8 107 l0 112 45 3 c24 1 46 3 47 4 2 3 147 -4 150 -7z
m-356 -18 c0 -22 1 -22 8 -3 9 21 4 -162 -5 -205 -5 -21 -7 -22 -15 -8 -5 9
-10 28 -11 42 -1 14 -6 26 -10 26 -4 0 -5 7 -2 15 4 8 2 15 -3 15 -5 0 -8 12
-7 28 1 15 -4 33 -10 41 -6 8 -10 16 -8 18 7 10 1 33 -8 28 -6 -3 -7 1 -4 9 4
10 19 16 40 16 28 0 34 -4 35 -22z m351 -345 c5 -15 8 -68 7 -118 l-1 -90
-104 1 c-162 2 -152 -6 -156 123 -2 60 0 107 5 104 4 -2 7 0 7 5 0 6 47 9 117
7 l117 -3 8 -29z m359 21 c15 -18 13 -202 -2 -221 -14 -16 -220 -8 -231 10
-13 21 -10 215 5 220 6 3 58 6 113 6 81 1 104 -2 115 -15z m4626 -131 c-3 -10
-5 -2 -5 17 0 19 2 27 5 18 2 -10 2 -26 0 -35z m-5159 -170 c-10 -2 -26 -2
-35 0 -10 3 -2 5 17 5 19 0 27 -2 18 -5z m36 -4 c-4 -7 16 -10 67 -7 l74 3 -3
-98 c-3 -64 0 -102 8 -112 9 -11 7 -16 -7 -23 -25 -13 -244 -2 -248 12 -2 6
-5 58 -7 116 l-3 105 48 -4 c27 -1 54 2 60 8 14 14 20 14 11 0z m123 5 c-3 -3
-12 -4 -19 -1 -8 3 -5 6 6 6 11 1 17 -2 13 -5z m-5017 -14 c-12 -8 -11 -10 6
-10 17 0 20 -5 16 -31 -3 -18 -1 -29 4 -26 14 8 11 -138 -3 -155 -7 -8 -10
-18 -6 -22 4 -4 -6 -2 -22 4 -17 6 -50 11 -75 9 -25 -1 -67 -1 -93 0 l-49 1 6
103 c3 56 6 105 6 110 0 4 37 7 83 7 45 0 77 4 70 8 -7 4 6 8 30 9 29 2 37 -1
27 -7z m5393 -12 c8 -9 12 -48 12 -113 l0 -100 -115 -6 c-63 -3 -121 -4 -127
-1 -8 3 -13 25 -14 61 0 31 -1 79 -2 106 -2 38 2 52 15 60 25 15 216 9 231 -7z
m356 -97 c-1 -111 -5 -125 -39 -127 -53 -4 -126 -6 -157 -5 l-31 1 -7 108 c-4
59 -8 109 -9 112 -1 7 181 16 217 11 l27 -3 -1 -97z m-702 -13 c-3 -8 -6 -5
-6 6 -1 11 2 17 5 13 3 -3 4 -12 1 -19z m-280 -70 c-2 -13 -4 -5 -4 17 -1 22
1 32 4 23 2 -10 2 -28 0 -40z m521 -65 c-16 -2 -40 -2 -55 0 -16 2 -3 4 27 4
30 0 43 -2 28 -4z m-1091 -35 c-3 -8 -6 -5 -6 6 -1 11 2 17 5 13 3 -3 4 -12 1
-19z m840 -13 c0 -11 -4 -12 -14 -4 -7 6 -13 13 -13 15 0 2 6 4 13 4 8 0 14
-7 14 -15z m-5092 -15 c15 -6 11 -7 -17 -7 -20 1 -35 5 -32 9 6 10 22 9 49 -2z
m79 -16 c3 -8 2 -12 -4 -9 -6 3 -10 10 -10 16 0 14 7 11 14 -7z m4999 9 c3 -5
7 -58 8 -119 l2 -109 -124 0 -124 -1 3 74 c3 60 1 73 -10 66 -10 -6 -10 -5 1
9 7 9 12 31 9 50 l-4 34 117 2 c64 1 119 -2 122 -6z m347 -3 l35 0 0 -102 c0
-129 -1 -130 -131 -132 -86 -1 -135 10 -117 27 3 4 2 7 -3 7 -5 0 -9 45 -9
100 0 80 3 100 15 104 8 3 51 3 95 1 44 -3 96 -5 115 -5z m-5448 -15 l29 -7
-3 -96 -3 -97 -47 -3 c-27 -2 -48 -7 -48 -13 0 -5 -8 -9 -17 -9 -15 0 -16 2
-3 10 11 7 7 10 -17 10 -54 0 -68 56 -38 154 8 26 13 52 10 56 -5 9 91 5 137
-5z m55 -42 c-3 -10 -5 -4 -5 12 0 17 2 24 5 18 2 -7 2 -21 0 -30z m113 4 c0
-4 -5 -5 -12 -1 -8 5 -9 2 -5 -10 4 -10 7 -31 7 -47 0 -17 4 -28 10 -24 6 4 7
-1 3 -11 -4 -12 -3 -15 5 -10 7 4 12 2 12 -3 0 -6 -4 -11 -10 -11 -5 0 -7 -13
-4 -29 4 -18 1 -32 -7 -36 -8 -5 -10 -4 -5 3 4 7 1 12 -9 12 -10 0 -13 -5 -9
-12 4 -7 3 -8 -4 -4 -6 4 -9 13 -5 21 3 8 1 15 -4 15 -6 0 -7 19 -3 47 8 51 4
76 -11 67 -5 -3 -9 -1 -9 5 0 5 5 13 10 16 6 3 10 15 10 26 0 17 3 18 20 7 11
-7 20 -16 20 -21z m4062 -69 c-8 -8 -9 -4 -5 13 4 13 8 18 11 10 2 -7 -1 -18
-6 -23z m625 -45 c-2 -16 -4 -5 -4 22 0 28 2 40 4 28 2 -13 2 -35 0 -50z
m5113 -87 c18 -38 34 -84 37 -102 5 -29 3 -34 -15 -34 -15 0 -22 9 -27 30 -6
26 -11 30 -40 30 -19 0 -37 -5 -40 -10 -4 -6 -11 -8 -16 -5 -5 4 -9 -3 -9 -13
0 -19 -27 -38 -38 -28 -2 3 1 19 7 37 6 17 8 36 4 42 -3 5 -1 7 4 4 6 -4 14 0
17 9 9 24 6 42 -4 19 -8 -18 -9 -18 -9 -2 -1 10 5 20 13 23 9 3 12 12 9 21 -5
12 -3 14 7 8 10 -6 12 -4 6 10 -8 21 2 58 14 50 4 -3 11 5 14 18 8 25 3 32 66
-107z m-2106 102 c-5 -8 -2 -9 9 -5 11 4 17 1 17 -7 0 -7 7 -19 16 -26 8 -8
24 -32 35 -54 20 -42 25 -61 9 -36 -8 12 -10 10 -11 -10 -1 -14 -2 -31 -2 -37
1 -19 -62 -54 -100 -57 -24 -1 -39 5 -62 29 -27 27 -31 39 -32 93 -1 34 2 60
6 57 5 -2 15 3 22 12 8 9 32 24 54 34 48 22 48 22 39 7z m166 -23 c6 -19 16
-33 21 -30 5 4 6 -1 3 -9 -3 -8 -1 -23 5 -33 6 -10 11 -12 11 -5 0 10 5 10 20
2 16 -9 19 -8 13 6 -4 12 -3 15 5 10 8 -5 10 -1 5 10 -4 11 -3 15 4 11 7 -5 9
1 5 15 -4 15 -2 19 7 14 8 -6 11 -2 9 10 -2 13 3 19 17 19 16 0 20 -7 20 -32
0 -17 -4 -29 -9 -25 -5 3 -7 -5 -4 -16 4 -12 3 -20 -2 -17 -9 6 -41 -75 -34
-86 3 -5 1 -9 -5 -9 -6 0 -7 -7 -4 -17 4 -11 3 -14 -5 -9 -7 4 -12 3 -12 -3 0
-6 -10 -15 -22 -22 -18 -10 -20 -9 -15 5 7 18 -12 68 -24 61 -4 -3 -5 4 -2 15
3 11 0 20 -6 20 -6 0 -10 3 -9 8 4 13 -26 101 -33 97 -3 -3 -4 7 -1 20 6 36
29 31 42 -10z m1217 23 c-8 -5 -4 -8 11 -8 15 0 21 4 16 12 -5 8 -2 9 10 5 10
-4 24 -7 32 -7 8 0 14 -10 14 -25 0 -14 5 -25 11 -25 22 0 -3 -18 -31 -22 -23
-4 -30 -1 -26 9 4 8 1 11 -5 7 -7 -4 -8 -19 -4 -38 11 -54 12 -115 2 -109 -6
4 -8 -3 -5 -15 6 -23 -7 -28 -31 -13 -9 6 -15 33 -17 76 -4 74 -8 85 -32 86
-14 0 -13 2 3 9 15 7 16 9 4 9 -15 1 -33 37 -24 50 2 3 22 6 44 6 23 1 35 -2
28 -7z m448 2 c-3 -5 0 -10 8 -10 8 0 20 -7 27 -15 8 -9 16 -12 19 -6 4 5 6
-15 7 -45 0 -30 -3 -48 -8 -41 -6 9 -8 9 -8 0 0 -7 7 -16 17 -21 28 -16 23
-54 -11 -77 -22 -15 -42 -19 -78 -17 -44 4 -48 6 -49 30 0 24 -1 25 -9 7 -6
-15 -9 -9 -8 25 0 37 1 41 8 20 5 -17 8 3 9 62 1 73 4 87 19 91 33 9 63 7 57
-3z m944 -55 c16 -36 32 -65 34 -65 3 0 8 7 11 16 3 8 2 12 -4 9 -6 -3 -10 1
-10 10 0 11 5 15 14 12 15 -6 31 36 21 53 -4 6 -1 10 4 10 6 0 14 1 18 3 3 1
14 -20 24 -48 10 -27 18 -42 18 -33 1 11 6 15 15 12 9 -3 17 3 21 18 4 13 14
34 22 47 12 19 17 21 24 10 12 -19 11 -62 -1 -54 -6 3 -9 -9 -7 -32 1 -27 -2
-37 -11 -35 -8 1 -12 -3 -10 -10 3 -7 -1 -19 -9 -26 -7 -7 -13 -19 -13 -25 0
-7 4 -6 10 3 8 11 9 7 4 -15 -9 -41 -12 -45 -29 -38 -9 3 -15 -1 -15 -8 0 -11
-3 -11 -10 1 -12 19 -13 33 -1 26 5 -4 7 3 4 14 -3 11 -8 18 -12 16 -3 -2 -6
9 -7 26 -1 16 -6 34 -12 40 -8 8 -9 5 -5 -11 4 -14 1 -21 -10 -21 -8 0 -17
-11 -19 -25 -3 -13 -1 -22 3 -19 10 6 11 -2 3 -33 -4 -13 -13 -21 -24 -20 -10
1 -17 4 -14 8 2 4 -2 9 -10 12 -7 3 -16 15 -19 26 -3 12 -1 19 3 16 4 -3 6 4
3 16 -5 16 -8 18 -15 7 -7 -9 -8 -4 -3 15 3 17 2 26 -4 23 -5 -4 -7 3 -3 16 3
14 2 19 -6 14 -8 -5 -11 0 -10 11 0 10 0 29 -1 43 -2 23 -3 24 -11 5 -7 -16
-9 -17 -9 -3 -1 23 9 48 20 48 5 0 22 -29 38 -65z m-3107 -12 l34 -52 18 29
c9 17 15 30 12 30 -8 0 39 45 49 48 12 2 12 0 14 -74 0 -30 5 -53 10 -50 5 3
8 -17 8 -44 -1 -44 -3 -50 -22 -50 -22 0 -26 10 -26 63 0 35 -12 34 -42 -4
l-24 -31 -31 42 -31 42 -3 -53 c-2 -40 -7 -54 -18 -54 -12 0 -15 15 -12 90 3
103 10 142 21 129 5 -5 24 -32 43 -61z m765 -52 c1 -75 -1 -110 -7 -101 -7 10
-10 11 -10 3 0 -14 -30 -18 -31 -5 0 4 -1 55 -3 113 l-2 105 26 0 25 0 2 -115z
m203 99 c0 -12 -7 -20 -17 -20 -10 0 -14 -4 -8 -8 6 -4 11 -18 11 -32 1 -14 5
-38 9 -54 6 -21 5 -27 -4 -22 -6 4 -9 12 -6 17 4 5 -10 9 -29 9 -33 0 -36 -2
-36 -30 0 -22 4 -28 15 -24 8 4 27 3 41 0 19 -5 25 -12 22 -29 -3 -23 0 -22
-100 -18 -15 1 -18 12 -20 74 l-1 72 -7 -60 c-6 -56 -7 -54 -8 35 -1 64 1 90
8 80 8 -12 10 -11 10 6 0 19 6 22 60 23 54 1 60 -1 60 -19z m325 4 c52 -24 69
-49 71 -104 1 -28 -3 -47 -8 -44 -5 3 -8 -2 -6 -11 2 -11 -4 -19 -17 -21 -11
-1 -24 -9 -30 -16 -6 -8 -33 -13 -67 -14 l-57 -1 -3 96 c-4 130 -4 131 44 131
22 0 55 -7 73 -16z m252 -36 c32 -62 64 -158 57 -170 -9 -14 -34 -9 -34 7 0 8
-3 14 -7 13 -5 -1 -20 2 -36 6 -17 5 -33 4 -42 -4 -8 -7 -15 -9 -16 -4 0 5 -4
-1 -9 -13 -5 -13 -16 -23 -24 -23 -20 0 -30 32 -14 45 8 5 12 18 10 29 -2 11
0 16 7 12 7 -5 9 -1 5 8 -3 9 -2 16 4 16 6 0 8 10 4 22 -3 13 -1 19 5 15 6 -4
14 0 17 9 3 8 2 12 -4 9 -16 -10 -12 0 10 25 11 13 20 29 20 37 0 28 21 11 47
-39z m439 -43 c13 -27 24 -56 24 -63 0 -7 4 -11 9 -8 5 3 8 -14 8 -37 -2 -36
-5 -43 -19 -39 -10 2 -18 11 -18 18 0 8 -4 14 -10 14 -5 0 -9 5 -7 12 1 8 -11
11 -37 9 -30 -2 -36 0 -30 11 4 7 -2 4 -15 -6 -12 -11 -20 -25 -17 -32 3 -7
-2 -15 -10 -18 -27 -11 -36 -6 -31 14 3 11 1 20 -4 20 -4 0 -6 7 -3 15 3 8 11
13 17 12 7 -1 11 8 10 21 -2 13 1 21 5 18 13 -8 42 61 35 80 -5 13 -3 15 7 9
10 -6 12 -4 7 7 -3 9 0 21 6 27 14 14 38 -13 73 -84z m650 87 c6 -4 14 -15 17
-26 7 -17 4 -18 -33 -12 -29 4 -40 3 -40 -6 0 -18 10 -29 53 -61 20 -15 37
-36 38 -45 0 -14 2 -13 9 3 8 19 9 19 9 -2 1 -13 -3 -23 -7 -23 -5 0 -14 -10
-21 -23 -15 -29 -70 -35 -107 -11 l-25 17 32 21 c23 14 34 17 37 8 5 -15 22
-6 22 11 0 7 -9 18 -21 25 -14 9 -19 10 -14 2 6 -9 2 -9 -14 -1 -11 7 -21 16
-21 22 0 6 -4 8 -8 5 -17 -10 -4 46 17 74 21 29 53 38 77 22z m232 -5 c7 -21
0 -35 -16 -30 -12 3 -22 -4 -29 -20 -11 -23 -9 -25 18 -31 46 -9 38 -36 -11
-36 -37 0 -40 -2 -39 -27 l1 -28 8 25 c8 25 8 25 9 2 1 -14 6 -22 14 -19 6 2
11 11 9 21 -2 10 4 16 18 16 11 0 20 -4 20 -10 0 -5 -6 -10 -12 -10 -9 0 -8
-3 2 -9 8 -6 17 -8 21 -5 4 2 4 -8 0 -23 -7 -26 -11 -28 -69 -31 l-62 -3 0
114 0 114 58 -2 c31 -1 58 -5 60 -8z m652 -18 c0 -17 -5 -18 -40 -13 -40 6
-40 6 -40 -25 0 -31 1 -31 39 -25 46 7 60 -13 30 -44 -24 -27 -24 -32 4 -33
15 -1 10 -4 -13 -9 l-35 -7 32 -2 c17 0 34 -5 38 -10 10 -17 -31 -31 -87 -31
l-53 0 0 109 c-1 60 3 107 7 105 4 -3 8 -2 8 3 0 4 25 6 55 5 46 -3 55 -7 55
-23z m191 12 c17 -13 23 -29 23 -59 1 -22 4 -38 9 -35 4 2 7 -2 8 -9 4 -58 3
-64 -25 -85 -37 -28 -120 -33 -130 -7 -8 21 -8 199 1 207 14 15 91 7 114 -12z
m233 -6 c18 -28 21 -39 6 -30 -5 3 -10 2 -10 -4 0 -5 -14 -12 -31 -16 l-31 -7
36 -26 c20 -14 36 -29 36 -34 0 -5 5 -6 10 -3 6 4 10 -5 10 -20 0 -15 -4 -24
-10 -20 -5 3 -10 2 -10 -2 0 -5 -7 -18 -16 -29 -8 -10 -12 -12 -8 -4 6 12 4
13 -7 3 -18 -18 -60 -16 -87 3 -23 16 -31 50 -9 41 41 -15 55 -16 73 -2 19 15
19 15 -4 35 -13 11 -30 16 -39 13 -10 -4 -14 -2 -10 4 3 5 -3 17 -14 26 -21
18 -16 40 19 80 23 26 76 22 96 -8z m143 -5 l2 -25 -8 25 c-4 14 -6 -25 -3
-87 5 -110 4 -113 -17 -113 -19 0 -21 6 -23 53 -5 176 -4 178 32 174 8 -1 16
-13 17 -27z m224 1 c0 -24 1 -24 10 -6 l9 20 -3 -20 c-2 -15 -9 -19 -27 -17
-21 2 -22 1 -10 -8 12 -9 8 -10 -18 -6 l-34 6 6 -38 c3 -20 7 -57 8 -82 2 -39
0 -45 -17 -45 -18 0 -21 9 -25 85 -5 84 -5 85 -32 88 -21 3 -28 9 -28 25 0 21
5 22 80 23 80 2 80 1 81 -25z m187 16 c8 -22 -2 -33 -30 -35 -40 -3 -42 -6
-29 -29 6 -10 11 -12 11 -5 0 6 8 12 18 12 14 0 15 -2 2 -10 -13 -8 -13 -10 1
-10 12 0 18 -11 21 -36 5 -39 -1 -47 -22 -33 -10 6 -11 9 -2 9 6 0 12 5 12 10
0 6 -7 10 -15 10 -8 0 -15 -5 -15 -11 0 -6 -6 -9 -13 -6 -10 4 -13 -1 -10 -17
4 -18 10 -22 32 -18 29 4 57 -19 48 -40 -3 -9 -23 -12 -66 -10 -58 4 -61 5
-62 30 0 15 -1 65 -2 112 l-2 85 60 -1 c33 0 61 -4 63 -7z m-1878 -58 c0 -5
-4 -9 -10 -9 -5 0 -10 7 -10 16 0 8 5 12 10 9 6 -3 10 -10 10 -16z m1577 -56
c-2 -16 -4 -5 -4 22 0 28 2 40 4 28 2 -13 2 -35 0 -50z m-4582 -19 l30 -6 -35
-10 c-19 -5 -223 -11 -452 -15 -411 -6 -418 -5 -418 14 0 11 2 22 5 24 6 7
835 0 870 -7z m5911 4 c2 -3 2 -13 -2 -22 -6 -14 -39 -15 -383 -10 -207 3
-378 8 -380 10 -2 2 -1 10 2 18 5 12 59 14 382 11 207 -1 378 -5 381 -7z
m-1636 -28 c-24 -15 -36 -11 -14 4 10 8 21 12 24 10 2 -3 -2 -9 -10 -14z
m-11189 -21 c6 -11 15 -17 22 -13 9 5 9 4 0 -6 -18 -20 16 -106 66 -162 22
-25 23 -28 7 -34 -18 -7 -26 -7 -124 -5 l-53 1 2 115 c1 63 6 115 11 115 5 0
7 4 4 8 -3 5 8 6 25 4 16 -2 34 -13 40 -23z m4522 16 l27 -5 0 -121 0 -120
-92 3 c-77 3 -92 6 -89 18 3 8 5 25 5 37 1 11 4 20 7 18 8 -6 90 165 84 175
-5 8 0 8 58 -5z m-4735 -110 c-2 -65 1 -115 6 -115 5 0 7 -3 3 -6 -3 -3 -58
-6 -123 -5 -85 0 -120 3 -126 13 -12 17 -6 211 7 220 6 4 61 8 123 8 l113 0
-3 -115z m4779 13 c-2 -18 -4 -6 -4 27 0 33 2 48 4 33 2 -15 2 -42 0 -60z
m193 59 c25 1 51 -4 59 -10 10 -8 16 -7 25 3 26 34 34 19 41 -81 4 -55 4 -104
0 -107 -4 -4 -51 -9 -106 -12 l-99 -5 -6 32 c-3 17 -4 51 -1 75 4 24 6 60 6
82 1 32 4 37 19 31 9 -4 37 -8 62 -8z m137 -59 c-3 -8 -6 -5 -6 6 -1 11 2 17
5 13 3 -3 4 -12 1 -19z m-330 -85 c-3 -10 -5 -2 -5 17 0 19 2 27 5 18 2 -10 2
-26 0 -35z m-744 -68 c-3 -9 -8 -14 -10 -11 -3 3 -2 9 2 15 9 16 15 13 8 -4z
m-3364 -29 c-3 -3 -11 5 -18 17 -13 21 -12 21 5 5 10 -10 16 -20 13 -22z
m8404 17 c-46 -2 -120 -2 -165 0 -46 1 -9 3 82 3 91 0 128 -2 83 -3z m1283
-22 c-3 -5 12 -16 34 -26 45 -20 130 -94 130 -113 0 -7 5 -12 10 -12 6 0 9 -3
8 -7 -1 -5 4 -24 11 -43 8 -19 13 -38 13 -41 0 -3 3 -31 7 -62 4 -31 4 -54 0
-52 -4 3 -10 -11 -14 -31 -3 -20 -11 -45 -16 -55 -5 -11 -14 -28 -19 -39 -6
-12 -8 -26 -4 -32 4 -7 3 -8 -4 -4 -10 6 -16 -4 -14 -25 1 -3 -4 -6 -11 -6 -7
0 -36 -17 -66 -37 -30 -20 -74 -42 -97 -48 -24 -7 -41 -15 -38 -19 2 -4 -10
-4 -28 2 -18 5 -220 10 -448 10 -228 1 -402 4 -386 6 17 3 45 21 68 46 32 33
42 38 50 26 7 -11 11 -11 15 -1 2 6 15 12 27 12 12 0 29 9 39 20 14 17 14 20
2 20 -8 0 -15 5 -15 10 0 6 -16 10 -35 10 -42 0 -52 17 -37 66 9 30 8 34 -9
34 -34 0 -59 -31 -59 -73 0 -36 -2 -39 -22 -33 -65 18 -139 18 -194 1 -40 -13
-59 -14 -67 -6 -12 12 -10 110 3 126 13 16 20 79 10 95 -8 12 -10 11 -10 -7 0
-32 -55 -91 -88 -95 -25 -3 -27 -7 -30 -50 -3 -47 -4 -48 -38 -48 -34 0 -34 0
-35 48 l-1 47 -10 -42 c-5 -24 -13 -43 -19 -43 -5 0 -9 -18 -9 -40 0 -22 5
-40 10 -40 6 0 10 -9 10 -20 0 -17 7 -20 41 -20 22 0 38 3 36 8 -3 4 19 8 49
9 30 0 54 -2 54 -7 0 -4 12 -10 27 -13 23 -4 25 -3 12 6 -14 11 -13 14 6 33
21 21 22 21 33 3 7 -10 12 -32 12 -48 0 -20 6 -31 18 -33 9 -3 -82 -8 -203
-13 -153 -5 -242 -4 -293 4 -41 6 -79 8 -84 4 -7 -4 -8 -1 -3 7 6 10 4 12 -9
7 -9 -4 -15 -3 -12 1 2 4 -12 18 -31 31 -19 12 -32 17 -28 9 4 -7 -4 1 -19 17
-14 17 -23 36 -20 44 4 11 2 12 -11 1 -9 -7 -15 -9 -14 -4 4 21 -2 35 -11 29
-6 -4 -10 -3 -9 2 3 20 -2 44 -8 40 -5 -3 -9 7 -10 21 0 15 -5 28 -11 30 -5 1
-7 15 -4 30 5 24 6 24 13 7 7 -19 8 -19 8 3 1 13 -5 22 -14 22 -13 0 -15 11
-13 58 2 31 6 59 10 62 3 3 8 14 10 25 1 11 6 22 10 25 3 3 8 12 10 20 2 8 26
37 53 65 43 44 81 67 145 89 26 8 1641 6 1636 -3z m-5786 -51 c-16 -6 10 -8
73 -6 119 4 117 6 117 -131 l0 -98 -125 -1 -125 -2 0 30 c0 17 -4 27 -10 23
-13 -8 -13 8 1 22 6 6 9 41 7 86 -3 83 -3 84 62 85 l25 0 -25 -8z m-4286 -11
c-5 -8 8 -10 47 -7 l54 4 -5 -103 c-3 -56 -10 -107 -15 -112 -10 -9 -74 -13
-187 -12 l-56 1 4 103 c2 56 5 107 6 112 1 6 31 9 72 9 62 -2 65 -1 26 6 l-45
7 53 1 c37 2 51 -1 46 -9z m4823 -24 c22 -15 24 -21 17 -48 -5 -18 -8 -63 -9
-102 l0 -70 -108 2 c-60 1 -114 4 -121 6 -10 4 -14 124 -7 213 1 6 14 9 30 6
16 -2 37 1 48 7 24 16 118 7 150 -14z m-330 -132 c-3 -10 -5 -4 -5 12 0 17 2
24 5 18 2 -7 2 -21 0 -30z m-727 -53 c0 -5 -5 -10 -11 -10 -5 0 -7 5 -4 10 3
6 8 10 11 10 2 0 4 -4 4 -10z m1077 -12 c-3 -8 -6 -5 -6 6 -1 11 2 17 5 13 3
-3 4 -12 1 -19z m-5264 -15 c-7 -2 -19 -2 -25 0 -7 3 -2 5 12 5 14 0 19 -2 13
-5z m11170 -20 c-7 -2 -19 -2 -25 0 -7 3 -2 5 12 5 14 0 19 -2 13 -5z m95 0
c-10 -2 -26 -2 -35 0 -10 3 -2 5 17 5 19 0 27 -2 18 -5z m-10537 -70 c17 -16
38 -41 46 -58 9 -16 31 -49 49 -72 19 -23 34 -48 34 -55 0 -22 -22 -38 -52
-38 -15 0 -28 -5 -28 -10 0 -7 -7 -7 -22 1 -13 7 -41 9 -74 5 -34 -4 -55 -2
-60 5 -7 12 -6 192 2 212 5 13 40 34 62 36 7 0 26 -11 43 -26z m3704 17 c-4
-6 15 -10 49 -10 l55 0 3 -120 3 -120 -103 5 c-85 4 -104 2 -108 -10 -5 -12
-10 -10 -24 8 -17 21 -24 80 -9 71 10 -6 30 22 21 31 -4 5 -2 5 4 2 15 -9 38
19 28 34 -5 8 -3 9 5 5 15 -10 42 23 36 42 -3 7 -1 10 5 7 9 -5 32 27 29 42
-2 13 1 23 7 23 3 0 2 -4 -1 -10z m470 -139 l0 -109 -104 -1 c-58 -1 -108 -4
-112 -7 -25 -15 -37 87 -23 189 l7 46 96 3 c141 4 136 8 136 -121z m-4397 19
c4 -145 13 -135 -124 -133 -64 1 -118 4 -120 6 -2 2 -5 46 -7 98 -3 124 -3
124 139 124 l109 0 3 -95z m8909 -40 c1 -14 -4 -20 -18 -20 -24 0 -24 9 -1 26
9 7 17 14 17 14 1 0 1 -9 2 -20z m-10 -82 c-3 -8 -6 -5 -6 6 -1 11 2 17 5 13
3 -3 4 -12 1 -19z m721 -55 c-21 -2 -55 -2 -75 0 -21 2 -4 4 37 4 41 0 58 -2
38 -4z m-9461 -39 c-3 -3 -12 -4 -19 -1 -8 3 -5 6 6 6 11 1 17 -2 13 -5z m157
-4 c26 -9 26 -11 26 -110 0 -68 4 -100 11 -100 7 0 1 -8 -12 -18 -20 -14 -39
-16 -129 -12 l-105 5 0 113 0 112 50 0 c28 0 45 4 38 8 -18 12 91 14 121 2z
m261 -57 c40 -38 86 -77 100 -88 29 -22 40 -64 21 -80 -6 -5 -23 -10 -38 -11
-16 0 -69 -1 -119 -2 -65 -1 -88 -5 -83 -14 4 -6 3 -9 -2 -6 -10 7 -1 238 10
256 14 23 38 11 111 -55z m3093 -60 l-3 -118 -95 -8 c-128 -11 -140 -7 -140
42 0 35 4 42 43 64 23 14 64 50 90 81 38 45 54 56 78 56 l30 0 -3 -117z m363
80 c0 -16 0 -66 -1 -111 -1 -67 1 -82 12 -77 9 6 10 5 3 -3 -6 -6 -60 -12
-127 -14 -100 -3 -118 -1 -121 13 -7 26 -8 199 -2 209 4 6 56 10 121 10 l114
0 1 -27z m302 10 c-7 -2 -19 -2 -25 0 -7 3 -2 5 12 5 14 0 19 -2 13 -5z m-96
-9 c-3 -3 -12 -4 -19 -1 -8 3 -5 6 6 6 11 1 17 -2 13 -5z m134 -11 c13 -16 12
-17 -3 -4 -10 7 -18 15 -18 17 0 8 8 3 21 -13z m-3714 -40 c-4 -3 1 -12 11
-20 15 -13 15 -13 -5 -3 -29 14 -38 30 -17 30 10 0 14 -3 11 -7z m3740 -100
c-3 -10 -5 -2 -5 17 0 19 2 27 5 18 2 -10 2 -26 0 -35z m-3839 -70 c-10 -2
-26 -2 -35 0 -10 3 -2 5 17 5 19 0 27 -2 18 -5z m364 -62 c2 -6 24 -11 50 -13
27 -2 48 -6 48 -9 0 -3 11 -11 25 -17 13 -6 27 -23 31 -37 3 -13 10 -22 15
-19 5 3 9 -2 9 -11 0 -9 -5 -13 -11 -10 -7 5 -9 -13 -8 -52 1 -33 -1 -65 -5
-72 -6 -9 -38 -11 -119 -7 -62 2 -100 2 -84 0 15 -3 27 -10 27 -15 0 -11 -3
-11 -34 1 -22 8 -26 16 -26 47 0 27 -3 34 -10 23 -5 -9 -7 9 -4 50 7 115 12
130 39 130 13 0 27 5 30 10 8 13 22 13 27 1z m1861 -10 c-15 -15 -73 -35 -73
-25 0 5 73 43 83 44 4 0 0 -8 -10 -19z m-2455 -21 c4 0 8 -14 8 -31 1 -17 5
-34 10 -38 5 -3 9 -32 10 -65 0 -38 -3 -52 -8 -40 -6 15 -7 13 -5 -8 2 -15 1
-25 -4 -23 -4 3 -10 1 -13 -4 -3 -5 -52 -12 -107 -16 -90 -7 -103 -5 -111 9
-13 22 -17 174 -6 206 8 25 10 25 98 22 63 -3 90 0 90 8 0 7 6 5 16 -4 8 -9
18 -16 22 -16z m296 19 c-5 -8 6 -10 33 -8 l40 4 2 -65 c1 -43 7 -69 16 -76 8
-6 15 -20 15 -30 0 -16 -2 -17 -10 -4 -9 13 -10 13 -10 0 0 -9 5 -21 12 -28 9
-9 9 -15 -1 -24 -11 -11 -12 -10 -6 2 7 12 4 12 -11 -1 -11 -10 -45 -19 -84
-22 -44 -4 -54 -3 -30 2 32 8 31 8 -20 10 -31 0 -61 -4 -67 -10 -8 -8 -17 -8
-29 -1 -19 10 -20 16 -27 102 -4 44 -3 47 3 15 6 -36 7 -34 8 26 1 40 -3 70
-10 78 -7 7 -8 11 -3 10 23 -6 164 14 159 22 -3 5 2 9 11 9 9 0 13 -5 9 -11z
m2333 -21 c-3 -8 -6 -5 -6 6 -1 11 2 17 5 13 3 -3 4 -12 1 -19z m710 14 c8 -5
13 -45 14 -115 2 -69 6 -107 13 -107 6 0 2 -6 -8 -12 -25 -14 -214 -16 -233
-3 -10 8 -16 43 -20 122 l-6 112 104 4 c57 1 109 4 114 5 6 1 15 -2 22 -6z
m-2587 -12 c0 -5 -2 -10 -4 -10 -3 0 -8 5 -11 10 -3 6 -1 10 4 10 6 0 11 -4
11 -10z m1500 -37 c0 -23 4 -32 12 -27 7 5 8 3 2 -7 -4 -8 -9 -31 -10 -52 -1
-21 -5 -50 -8 -64 -5 -18 -4 -23 6 -17 7 4 9 3 5 -2 -4 -4 -43 -7 -85 -6 -53
2 -86 -2 -105 -12 -15 -8 -25 -10 -21 -4 5 7 0 9 -14 6 -20 -6 -22 -2 -23 35
-1 75 2 172 7 176 2 2 28 3 58 2 30 -1 56 2 59 6 3 4 30 6 61 5 l56 -4 0 -35z
m723 -60 c3 -60 3 -111 0 -115 -2 -5 -51 -8 -108 -8 -92 0 -105 2 -118 20 -8
11 -17 17 -20 13 -4 -3 -7 -1 -7 5 0 7 5 12 10 12 6 0 10 34 10 83 0 46 3 87
7 90 3 4 54 7 113 7 l107 0 6 -107z m739 -6 c-1 -71 -6 -113 -15 -120 -7 -8
-50 -12 -115 -12 -56 0 -103 0 -103 0 -1 0 -4 55 -8 122 l-6 121 125 -1 125
-2 -3 -108z m-1102 -19 l0 -88 -69 0 c-37 0 -88 -3 -113 -6 -40 -6 -46 -4 -62
21 -10 15 -13 25 -8 21 7 -4 13 15 18 53 l6 60 29 -14 c15 -8 40 -15 54 -15
33 0 85 27 85 44 0 18 43 37 52 22 4 -6 8 -50 8 -98z m117 45 c-2 -16 -4 -5
-4 22 0 28 2 40 4 28 2 -13 2 -35 0 -50z m360 45 c-3 -8 -6 -5 -6 6 -1 11 2
17 5 13 3 -3 4 -12 1 -19z m-1588 -24 c3 -3 8 -38 11 -78 l5 -73 -29 8 c-16 5
-32 7 -35 4 -4 -2 -16 9 -26 25 -15 22 -31 31 -62 36 -40 6 -61 24 -28 24 9 0
18 12 21 29 4 17 14 32 23 35 20 6 112 -1 120 -10z m370 -7 c16 -42 24 -134
12 -141 -6 -4 -8 -12 -5 -18 4 -6 -3 -5 -16 2 -12 7 -70 14 -128 16 l-106 3 3
47 c2 31 -2 50 -11 55 -10 7 -10 9 0 9 6 0 12 8 12 18 0 10 3 22 7 25 3 4 55
7 115 7 104 0 109 -1 117 -23z m-342 -59 c-3 -7 -5 -2 -5 12 0 14 2 19 5 13 2
-7 2 -19 0 -25z m1200 -25 c-3 -10 -5 -4 -5 12 0 17 2 24 5 18 2 -7 2 -21 0
-30z m730 -30 c-3 -10 -5 -2 -5 17 0 19 2 27 5 18 2 -10 2 -26 0 -35z m-1984
-40 c-7 -2 -19 -2 -25 0 -7 3 -2 5 12 5 14 0 19 -2 13 -5z m31 -18 c-6 -16
-24 -21 -24 -7 0 11 11 22 21 22 5 0 6 -7 3 -15z m-856 -2 c-10 -2 -26 -2 -35
0 -10 3 -2 5 17 5 19 0 27 -2 18 -5z m70 0 c-10 -2 -26 -2 -35 0 -10 3 -2 5
17 5 19 0 27 -2 18 -5z m1739 1 c-3 -3 -12 -4 -19 -1 -8 3 -5 6 6 6 11 1 17
-2 13 -5z m81 -1 c-10 -2 -28 -2 -40 0 -13 2 -5 4 17 4 22 1 32 -1 23 -4z
m419 1 c-3 -3 -12 -4 -19 -1 -8 3 -5 6 6 6 11 1 17 -2 13 -5z m-1990 -70 c-3
-3 -12 -4 -19 -1 -8 3 -5 6 6 6 11 1 17 -2 13 -5z m160 -1 c-3 -3 -22 -5 -42
-5 -20 0 -39 2 -41 5 -3 3 15 5 41 5 26 0 44 -2 42 -5z m1316 0 c-7 -2 -19 -2
-25 0 -7 3 -2 5 12 5 14 0 19 -2 13 -5z m-945 -132 c-3 -114 -1 -128 12 -118
13 11 13 10 1 -6 -10 -12 -17 -15 -25 -7 -5 5 -51 10 -102 10 -51 0 -98 2
-106 5 -10 4 -12 32 -10 123 l3 117 115 2 116 3 -4 -129z m375 119 c9 -10 16
-215 8 -228 -6 -10 -35 -14 -97 -15 -49 -1 -96 -6 -104 -10 -9 -4 -23 -2 -32
5 -14 11 -18 33 -19 127 -1 83 2 115 11 121 14 9 225 8 233 0z m367 -7 c3 -3
7 -51 8 -107 3 -77 0 -105 -10 -113 -11 -10 -186 -19 -223 -12 -5 1 -12 1 -15
1 -3 0 -4 52 -4 115 1 80 6 118 14 123 13 8 221 1 230 -7z m380 -113 l5 -125
-115 0 c-96 0 -118 3 -133 18 -9 9 -13 17 -7 17 6 0 7 36 3 95 -4 61 -2 99 5
107 7 9 44 13 124 13 l113 0 5 -125z m183 123 c-7 -2 -19 -2 -25 0 -7 3 -2 5
12 5 14 0 19 -2 13 -5z m-2080 -10 c-7 -2 -19 -2 -25 0 -7 3 -2 5 12 5 14 0
19 -2 13 -5z m210 -3 c-27 -11 -32 -30 -36 -130 l-3 -75 -2 88 c-2 97 7 127
41 126 l22 0 -22 -9z m1822 0 c3 -5 1 -10 -4 -10 -6 0 -11 5 -11 10 0 6 2 10
4 10 3 0 8 -4 11 -10z m-1988 -22 c-3 -8 -6 -5 -6 6 -1 11 2 17 5 13 3 -3 4
-12 1 -19z m2203 12 c0 -5 -11 -10 -25 -10 -14 0 -25 5 -25 10 0 6 11 10 25
10 14 0 25 -4 25 -10z m17 -82 c-2 -13 -4 -3 -4 22 0 25 2 35 4 23 2 -13 2
-33 0 -45z m-2220 20 c-3 -7 -5 -2 -5 12 0 14 2 19 5 13 2 -7 2 -19 0 -25z
m1995 -150 c1 -10 7 -18 12 -18 5 0 6 -3 3 -6 -13 -14 -34 17 -30 44 4 22 2
24 -7 12 -10 -13 -11 -12 -6 3 3 10 7 46 8 80 l1 62 9 -80 c4 -44 9 -88 10
-97z m-1595 115 c-3 -10 -5 -4 -5 12 0 17 2 24 5 18 2 -7 2 -21 0 -30z m1798
-30 c-6 -35 -5 -37 8 -18 9 11 19 17 23 12 4 -4 2 -7 -4 -7 -7 0 -12 -15 -12
-36 0 -21 -4 -33 -10 -29 -5 3 -10 -1 -10 -10 0 -9 -4 -14 -9 -10 -5 3 -12 1
-16 -5 -4 -6 -11 -7 -18 -3 -6 4 -28 6 -48 4 -21 -1 -40 3 -44 9 -3 6 3 10 14
10 12 0 21 5 21 10 0 6 7 10 15 10 8 0 15 -4 15 -10 0 -5 10 -10 23 -9 l22 0
-23 10 c-24 9 -22 29 4 29 8 0 14 7 14 15 0 21 22 65 33 65 5 0 6 -16 2 -37z
m-2452 -50 c3 -24 2 -43 -3 -43 -9 0 -18 61 -12 80 6 17 9 10 15 -37z m236 22
c1 14 4 16 13 7 9 -9 8 -17 -2 -37 -10 -18 -16 -22 -22 -13 -6 10 -8 10 -8 1
0 -7 -4 -13 -10 -13 -5 0 -10 7 -10 15 0 8 5 15 10 15 6 0 10 12 11 28 l1 27
8 -25 c6 -20 8 -21 9 -5z m421 8 c0 -10 -5 -25 -10 -33 -7 -11 -10 -7 -10 18
0 17 5 32 10 32 6 0 10 -8 10 -17z m1675 -43 c3 -5 -1 -10 -10 -10 -9 0 -13 5
-10 10 3 6 8 10 10 10 2 0 7 -4 10 -10z m-2120 -30 c17 -7 16 -9 -10 -10 -16
0 -51 -2 -78 -3 -43 -3 -45 -2 -25 10 26 14 83 16 113 3z m-160 -10 c-3 -5
-14 -10 -23 -10 -15 0 -15 2 -2 10 20 13 33 13 25 0z m365 0 c0 -5 -5 -10 -11
-10 -5 0 -7 5 -4 10 3 6 8 10 11 10 2 0 4 -4 4 -10z"/>
<path d="M5180 1572 c-61 -63 -86 -93 -60 -73 47 36 117 107 151 154 11 15 19
27 17 26 -2 0 -50 -48 -108 -107z"/>
<path d="M5049 1453 c-13 -16 -12 -17 4 -4 9 7 17 15 17 17 0 8 -8 3 -21 -13z"/>
<path d="M4929 1368 c-46 -34 -119 -81 -161 -105 -43 -24 -80 -49 -84 -55 -14
-22 140 71 237 142 90 67 106 80 96 80 -2 0 -41 -28 -88 -62z"/>
<path d="M4605 1170 c4 -6 11 -8 16 -5 14 9 11 15 -7 15 -8 0 -12 -5 -9 -10z"/>
<path d="M3760 4619 c-222 -7 -360 -26 -450 -62 -92 -37 -181 -93 -241 -149
-51 -49 -56 -59 -73 -131 -23 -97 -18 -158 19 -231 26 -51 102 -137 150 -170
127 -85 205 -107 430 -116 105 -5 228 -16 274 -24 144 -27 249 6 389 123 181
153 250 323 183 454 -28 54 -110 139 -188 193 -29 20 -53 40 -53 44 0 14 -101
51 -168 63 -46 8 -132 10 -272 6z m210 -152 c103 -25 244 -76 286 -103 19 -13
54 -71 37 -62 -194 99 -412 146 -623 135 -180 -10 -334 -46 -477 -112 l-73
-34 0 24 c0 21 14 31 93 69 84 40 145 58 337 101 98 22 288 14 420 -18z m-122
-97 c71 -6 140 -20 190 -36 100 -34 282 -120 282 -133 0 -17 -12 -14 -87 20
-102 46 -137 58 -263 85 -158 35 -320 35 -494 -1 -149 -30 -198 -46 -291 -94
-38 -20 -73 -37 -77 -39 -5 -2 -8 8 -8 22 0 21 12 30 83 64 135 65 294 107
437 115 30 2 69 4 85 5 17 1 81 -3 143 -8z m56 -155 c112 -21 356 -121 356
-145 0 -22 -28 -20 -90 8 -162 73 -451 110 -630 82 -90 -15 -223 -56 -293 -92
-62 -31 -87 -31 -87 0 0 14 20 29 73 55 112 55 236 91 382 111 49 7 210 -3
289 -19z m34 -175 c57 -13 200 -69 208 -82 12 -20 -7 -19 -68 2 -109 38 -187
50 -333 50 -148 0 -260 -15 -383 -52 -63 -18 -75 -19 -82 -7 -19 30 131 84
272 99 97 10 319 4 386 -10z m-77 -126 c39 -9 69 -17 67 -19 -2 -2 -48 2 -103
8 -92 10 -277 0 -365 -19 -20 -4 -22 -3 -8 5 62 40 283 54 409 25z"/>
<path d="M2996 4375 c-9 -26 -7 -32 5 -12 6 10 9 21 6 23 -2 3 -7 -2 -11 -11z"/>
<path d="M2405 3820 c-3 -5 -2 -10 4 -10 5 0 13 5 16 10 3 6 2 10 -4 10 -5 0
-13 -4 -16 -10z"/>
<path d="M4819 3810 c-48 -14 -143 -69 -191 -111 -64 -54 -172 -218 -193 -293
l-17 -58 38 -112 c34 -99 38 -122 39 -211 0 -94 -2 -106 -39 -194 -38 -92 -38
-94 -26 -150 59 -266 332 -493 531 -441 144 37 260 203 319 454 30 129 50 263
50 335 0 147 -55 411 -110 529 -56 120 -148 216 -237 248 -42 14 -123 17 -164
4z m61 -120 c0 -5 19 -40 43 -77 73 -114 108 -205 111 -288 0 -22 6 -44 12
-50 17 -14 42 -127 50 -220 9 -121 -35 -336 -81 -385 -12 -14 -25 -38 -29 -54
-4 -15 -9 -26 -11 -24 -3 2 12 67 32 144 33 125 37 152 37 269 0 196 -56 419
-151 593 -24 46 -42 90 -39 98 6 15 26 10 26 -6z m125 -30 c21 -25 55 -81 76
-125 89 -191 113 -324 106 -590 -6 -185 -18 -259 -58 -336 -42 -83 -39 -36 11
146 34 124 41 220 25 352 -16 142 -17 147 -62 293 -38 121 -61 171 -119 259
-42 63 -31 64 21 1z m-251 -88 c79 -125 122 -248 147 -413 21 -146 -19 -451
-59 -442 -5 1 -12 -11 -15 -26 -5 -24 -33 -49 -43 -38 -2 1 9 45 23 97 24 86
27 112 27 270 0 160 -2 184 -27 275 -15 55 -45 138 -67 183 -39 82 -47 112
-33 125 13 13 23 6 47 -31z m-115 -175 c48 -98 65 -192 63 -352 0 -95 -6 -170
-15 -205 -13 -47 -15 -50 -16 -22 -1 30 -3 31 -21 20 -22 -14 -26 -37 -10 -56
6 -6 7 -10 4 -7 -16 12 -34 -21 -34 -61 0 -26 -5 -44 -11 -44 -7 0 -9 -11 -5
-30 7 -39 -1 -38 -18 1 -11 27 -10 37 10 88 77 189 83 399 17 589 -25 75 -25
122 1 122 8 0 24 -19 35 -43z m6 -649 c-19 -11 -30 -5 -21 11 4 6 14 7 22 4
15 -5 14 -7 -1 -15z m307 -210 c-7 -7 -12 -8 -12 -2 0 14 12 26 19 19 2 -3 -1
-11 -7 -17z"/>
<path d="M2440 3788 c-125 -50 -218 -190 -281 -423 -32 -118 -33 -124 -33
-330 0 -203 1 -214 31 -327 40 -148 116 -309 176 -370 102 -106 228 -128 354
-64 147 74 334 301 350 425 4 26 -3 64 -20 117 -57 172 -57 300 -2 453 31 85
31 107 1 175 -58 131 -178 262 -296 325 -56 30 -76 35 -145 38 -64 2 -91 -1
-135 -19z m60 -54 c0 -3 -31 -65 -69 -137 -78 -148 -108 -249 -136 -450 -18
-130 -16 -177 17 -377 11 -69 21 -133 21 -142 1 -10 4 -18 7 -18 3 0 6 -12 7
-27 l2 -28 -14 26 c-53 97 -95 307 -95 469 1 123 39 321 80 408 38 81 127 241
148 265 15 17 32 23 32 11z m118 -33 c11 -6 8 -16 -13 -47 -91 -133 -165 -329
-190 -504 -14 -90 -15 -128 -6 -212 19 -183 21 -213 15 -199 -5 10 -8 10 -14
1 -13 -21 -42 130 -47 245 -6 134 22 316 65 429 36 93 150 296 165 296 7 0 18
-4 25 -9z m120 -93 c14 -14 16 -48 3 -48 -12 0 -65 -122 -95 -218 -55 -175
-64 -363 -28 -537 15 -75 18 -102 9 -107 -23 -15 -35 -8 -50 30 -31 78 -42
158 -41 307 0 145 2 154 38 270 41 130 127 315 146 315 3 0 11 -5 18 -12z
m127 -148 c17 -19 18 -26 6 -63 -28 -98 -33 -116 -48 -187 -15 -75 -13 -276 3
-374 6 -38 6 -39 -21 -34 -27 6 -27 5 -21 -36 9 -71 -12 -5 -30 91 -20 108
-22 288 -5 368 14 62 65 226 76 245 9 15 20 12 40 -10z m-55 -785 c0 -5 -5 -3
-10 5 -5 8 -10 20 -10 25 0 6 5 3 10 -5 5 -8 10 -19 10 -25z m30 -60 c7 -9 8
-15 2 -15 -5 0 -12 7 -16 15 -3 8 -4 15 -2 15 2 0 9 -7 16 -15z"/>
<path d="M3290 3675 c-48 -32 -54 -34 -70 -20 -52 47 -130 15 -130 -54 0 -54
24 -84 66 -79 l33 4 -4 -86 c-10 -189 -12 -397 -6 -627 l6 -242 -25 -6 c-55
-14 -70 -32 -70 -85 0 -41 4 -52 26 -69 32 -25 43 -26 87 -5 l34 16 60 -48
c34 -27 59 -53 56 -60 -2 -6 -47 -35 -98 -63 -52 -29 -120 -75 -150 -102 -122
-112 -162 -288 -95 -419 48 -95 202 -185 375 -219 236 -47 353 -49 582 -10
185 31 343 103 412 189 50 63 83 142 83 205 2 156 -202 371 -402 425 -63 17
-108 15 -197 -10 -100 -28 -212 -36 -285 -21 -32 7 -60 16 -62 20 -5 7 132 91
304 186 220 122 268 150 355 214 180 130 248 189 271 233 8 15 14 55 14 90 0
105 -25 131 -280 290 -74 47 -191 122 -260 168 -206 136 -408 220 -531 220
-37 0 -58 -7 -99 -35z m275 -199 c101 -54 420 -236 500 -285 33 -20 78 -45 99
-56 92 -47 129 -111 88 -149 -18 -15 -20 -15 -35 2 -13 15 -14 21 -4 31 10 10
8 12 -8 9 -11 -2 -19 -11 -19 -21 1 -9 -2 -15 -6 -12 -4 2 -45 -22 -91 -53
-46 -32 -133 -85 -194 -117 -60 -32 -153 -85 -205 -118 -106 -68 -201 -117
-225 -117 -8 0 -24 5 -35 12 -32 20 -35 0 -5 -32 25 -26 33 -29 74 -24 44 5
45 5 26 -11 -48 -38 -97 -28 -139 28 -20 26 -21 45 -26 260 -3 128 -4 323 -2
434 l3 202 30 31 c42 41 77 39 174 -14z m545 -586 c0 -5 -8 -10 -17 -10 -15 0
-16 2 -3 10 19 12 20 12 20 0z m-660 -751 c136 -28 360 -30 468 -6 40 9 85 16
100 16 24 -2 24 -2 5 -6 -24 -5 -31 -19 -11 -25 6 -2 -29 -14 -78 -26 -151
-37 -357 -28 -547 24 -72 20 -71 19 -62 33 8 14 2 14 125 -10z m-220 -93 c0
-23 22 -31 34 -14 10 14 18 13 67 -7 151 -64 475 -72 693 -17 l119 30 -28 -24
c-24 -21 -25 -24 -9 -24 39 -1 -34 -30 -143 -56 -151 -37 -347 -39 -478 -5
-119 31 -178 57 -169 73 6 10 5 10 -8 0 -13 -10 -24 -9 -62 7 -44 19 -63 51
-31 51 8 0 15 -6 15 -14z m930 -46 c-8 -5 -19 -10 -25 -10 -5 0 -3 5 5 10 8 5
20 10 25 10 6 0 3 -5 -5 -10z m138 -82 c-25 -37 -179 -107 -296 -134 -223 -50
-335 -54 -522 -15 -164 34 -428 146 -358 152 26 3 45 -3 140 -42 147 -59 242
-79 409 -86 138 -5 156 -4 310 27 119 24 184 42 237 67 39 19 72 39 72 44 0 5
5 9 11 9 8 0 6 -8 -3 -22z m-1105 -174 c67 -39 50 -42 -28 -6 -42 20 -65 37
-65 48 0 15 2 15 23 0 12 -8 43 -28 70 -42z"/>
<path d="M4132 3044 c10 -10 20 -16 22 -13 3 3 -5 11 -17 18 -21 13 -21 12 -5
-5z"/>
<path d="M3430 2766 c0 -30 5 -58 10 -61 6 -4 10 15 10 49 0 30 -4 58 -10 61
-6 4 -10 -15 -10 -49z"/>
<path d="M4222 3657 c-34 -36 -30 -89 9 -122 38 -31 65 -29 92 7 24 32 25 80
2 114 -21 32 -73 33 -103 1z"/>
<path d="M4202 2567 c-34 -36 -26 -101 17 -134 20 -15 66 -17 91 -3 21 11 35
67 25 99 -19 60 -93 80 -133 38z"/>
<path d="M3109 2193 c-13 -16 -12 -17 4 -4 16 13 21 21 13 21 -2 0 -10 -8 -17
-17z"/>
<path d="M5147 1943 c-4 -3 -7 -11 -7 -17 0 -6 5 -5 12 2 6 6 9 14 7 17 -3 3
-9 2 -12 -2z"/>
<path d="M4380 1450 c-26 -14 -30 -19 -15 -19 11 0 31 8 45 19 32 25 15 25
-30 0z"/>
<path d="M4236 1398 c-85 -30 -110 -44 -61 -32 41 9 174 63 155 62 -8 0 -51
-14 -94 -30z"/>
<path d="M3591 1296 c2 -2 40 -6 84 -8 44 -3 69 -2 55 2 -25 8 -147 13 -139 6z"/>
<path d="M12588 3388 c-9 -29 -35 -98 -57 -152 -23 -55 -41 -102 -41 -105 0
-3 56 -5 124 -3 l123 3 -24 62 c-13 34 -36 89 -51 122 -16 33 -35 75 -43 93
l-14 32 -17 -52z"/>
<path d="M8978 3601 c-75 -24 -121 -54 -158 -101 -82 -103 -111 -246 -71 -352
41 -107 123 -183 230 -215 90 -26 144 -20 237 27 84 41 140 94 178 168 58 114
29 283 -69 390 -78 87 -228 123 -347 83z"/>
<path d="M11662 3489 l3 -132 90 2 c104 3 140 18 168 71 13 25 16 47 12 75
-13 88 -58 115 -190 115 l-86 0 3 -131z"/>
<path d="M11693 3203 l-33 -4 0 -142 0 -142 107 1 c122 1 151 11 202 69 24 27
31 45 31 76 0 58 -25 104 -68 125 -37 18 -165 27 -239 17z"/>
<path d="M11157 2470 c-4 -15 0 -20 14 -20 21 0 22 1 13 24 -8 22 -21 20 -27
-4z"/>
<path d="M9056 2508 c-9 -12 -16 -35 -16 -50 0 -25 22 -58 40 -58 5 0 15 -3
23 -6 24 -9 57 31 57 69 0 62 -71 92 -104 45z"/>
<path d="M9336 2448 c3 -5 10 -6 15 -3 13 9 11 12 -6 12 -8 0 -12 -4 -9 -9z"/>
<path d="M10918 2515 c-6 -30 4 -39 33 -30 27 9 22 49 -7 53 -16 2 -23 -3 -26
-23z"/>
<path d="M10916 2425 c-9 -25 -8 -26 27 -23 20 2 32 8 32 18 0 22 -51 26 -59
5z"/>
<path d="M9670 2513 c0 -20 5 -23 38 -22 l37 1 -30 10 c-16 6 -33 16 -37 22
-5 6 -8 1 -8 -11z"/>
<path d="M10010 2468 l0 -71 36 6 c46 8 64 23 64 56 0 39 -20 61 -63 70 l-37
9 0 -70z"/>
<path d="M10290 2470 c0 -13 7 -20 19 -20 14 0 18 5 14 20 -3 11 -12 20 -19
20 -8 0 -14 -9 -14 -20z"/>
<path d="M10702 2478 c-19 -19 -14 -28 14 -28 18 0 25 5 22 17 -4 21 -21 26
-36 11z"/>
<path d="M12392 2545 c0 -16 2 -22 5 -12 2 9 2 23 0 30 -3 6 -5 -1 -5 -18z"/>
<path d="M12440 2515 c0 -20 5 -25 25 -25 27 0 33 18 13 38 -20 20 -38 14 -38
-13z"/>
<path d="M12447 2443 c-14 -13 -7 -43 11 -43 27 0 46 16 39 34 -6 16 -38 22
-50 9z"/>
<path d="M12668 2533 c7 -3 16 -2 19 1 4 3 -2 6 -13 5 -11 0 -14 -3 -6 -6z"/>
<path d="M10363 1863 c-17 -6 -16 -28 1 -42 20 -17 46 -3 46 25 0 24 -17 30
-47 17z"/>
<path d="M10950 1798 c0 -9 5 -20 10 -23 13 -8 13 5 0 25 -8 13 -10 13 -10 -2z"/>
<path d="M11221 1764 c0 -11 3 -14 6 -6 3 7 2 16 -1 19 -3 4 -6 -2 -5 -13z"/>
<path d="M11306 1772 c-3 -5 -2 -39 2 -76 l8 -66 -40 3 c-36 2 -41 -1 -51 -27
-7 -22 -7 -30 3 -33 6 -3 12 -13 12 -23 0 -23 27 -34 34 -13 6 15 29 14 104
-4 19 -4 22 -1 22 22 l0 27 90 -4 c50 -1 90 0 90 5 0 4 8 7 18 7 9 0 24 5 32
10 31 21 -11 31 -99 25 -56 -4 -86 -3 -91 5 -3 6 -30 13 -58 17 -29 3 -52 9
-53 12 0 3 -2 30 -5 60 -4 57 -8 69 -18 53z"/>
<path d="M10936 1691 c-16 -3 -31 -12 -34 -19 -2 -7 0 -12 5 -10 4 1 29 -1 55
-6 38 -6 46 -11 45 -27 -1 -10 -4 -19 -8 -19 -4 0 -11 -10 -15 -22 -7 -22 -7
-22 -15 -3 l-9 20 3 -20 c2 -12 10 -19 20 -19 10 1 17 -5 17 -17 0 -12 7 -19
20 -19 13 0 20 -7 20 -20 0 -33 45 -25 85 15 41 40 47 80 14 88 -13 3 -19 11
-17 19 3 7 0 19 -7 25 -10 9 -14 9 -19 -2 -3 -9 -18 -15 -35 -15 -23 0 -33 7
-43 28 -14 28 -34 34 -82 23z"/>
<path d="M9817 1663 c-3 -5 0 -19 8 -29 15 -20 18 -11 6 20 -4 11 -10 15 -14
9z"/>
<path d="M11680 1620 c0 -5 7 -10 15 -10 8 0 15 5 15 10 0 6 -7 10 -15 10 -8
0 -15 -4 -15 -10z"/>
<path d="M11196 1605 c4 -8 8 -15 10 -15 2 0 4 7 4 15 0 8 -4 15 -10 15 -5 0
-7 -7 -4 -15z"/>
<path d="M9908 1563 c7 -3 16 -2 19 1 4 3 -2 6 -13 5 -11 0 -14 -3 -6 -6z"/>
<path d="M11328 1523 c6 -2 18 -2 25 0 6 3 1 5 -13 5 -14 0 -19 -2 -12 -5z"/>
</g>
</svg>
